<svg width="200" height="200" viewBox="0 0 200 200" fill="none" xmlns="http://www.w3.org/2000/svg">
<path d="M126.475 43.1417C117.45 52.175 100.308 49.6834 100.308 49.6834C100.308 49.6834 97.825 32.55 106.858 23.5167C115.883 14.4917 133.025 16.9834 133.025 16.9834C133.025 16.9834 135.508 34.1084 126.475 43.1417ZM33.3333 117.167C33.3333 144.508 51.6333 175.917 70.1583 182.558C76.575 184.858 83.2167 181.683 88.7333 177.725C92.9167 174.725 97.9833 171.867 102.083 171.867C106.167 171.867 111.25 174.725 115.425 177.725C120.942 181.683 127.583 184.858 134.008 182.558C147.167 177.842 160.217 160.617 166.667 141.225C154.167 137.642 145.05 126.342 145.05 112.95C145.05 100.683 152.708 90.1667 163.6 85.7417C156.583 73.275 145.117 66.6667 132.158 66.6667C125.458 66.6667 119.292 69.3667 114.325 72.6084C106.375 77.775 97.7833 77.775 89.8417 72.6084C84.8667 69.3667 78.7083 66.6667 72.0083 66.6667C50.6417 66.6667 33.3333 84.625 33.3333 117.167Z" stroke="#FEFBF5" stroke-width="10" stroke-linecap="round" stroke-linejoin="round"/>
</svg>
