<svg width="200" height="54" viewBox="0 0 200 54" fill="none" xmlns="http://www.w3.org/2000/svg">
<path d="M163.367 44.5083C153.708 44.5083 152.85 36.5917 152.85 34.175C152.85 31.7583 153.708 23.825 163.367 23.825H180.55C190.217 23.825 191.075 31.75 191.075 34.175C191.075 36.5917 190.208 44.5083 180.55 44.5083M163.367 15.1167C145.517 15.1167 143.925 29.7167 143.925 34.175C143.925 38.6333 145.508 53.225 163.367 53.225H180.55C198.408 53.225 200 38.6333 200 34.175C200 29.7167 198.417 15.1167 180.55 15.1167M134.908 16.0083C132.525 16.0083 132.033 16.425 131.108 17.7833C130.192 19.15 114.258 43.4667 114.258 43.4667C113.758 44.2167 113.208 44.5167 112.542 44.5167C111.875 44.5167 111.333 44.2167 110.825 43.4667C110.825 43.4667 94.8917 19.15 93.975 17.7833C93.0583 16.4167 92.5583 16.0083 90.175 16.0083H84.6083C83.325 16.0083 82.7417 17.0083 83.55 18.2333L102.575 47.125C105.525 51.4667 107.692 53.225 112.542 53.225C117.392 53.225 119.558 51.475 122.508 47.125L141.542 18.2333C142.342 17.0167 141.758 16.0083 140.475 16.0083M66.5083 18.375C66.5083 16.6833 67.175 16.0083 68.8667 16.0083H73.075C74.7667 16.0083 75.4333 16.675 75.4333 18.3667V50.8667C75.4333 52.55 74.7667 53.225 73.075 53.225H68.8667C67.175 53.225 66.5083 52.5583 66.5083 50.8667V18.375ZM51.7667 16C49.375 16 48.8833 16.4167 47.9667 17.775C47.05 19.1417 31.1167 43.4583 31.1167 43.4583C30.6083 44.2083 30.0667 44.5083 29.4 44.5083C28.7333 44.5083 28.1917 44.2083 27.6833 43.4583C27.6833 43.4583 11.75 19.1417 10.825 17.775C9.90833 16.4083 9.41667 16 7.03333 16H1.45833C0.0333339 16 -0.408333 17 0.400001 18.225L19.425 47.1167C22.3833 51.4583 24.55 53.2167 29.4 53.2167C34.25 53.2167 36.4167 51.4667 39.3667 47.1167L58.3917 18.225C59.2 17.0083 58.7583 16 57.3333 16M66.125 8.55832C64.75 7.19165 64.75 6.09999 66.125 4.72499L69.05 1.79999C70.425 0.424988 71.5167 0.424988 72.8833 1.79999L75.8167 4.72499C77.1917 6.09999 77.1917 7.19165 75.8167 8.55832L72.8833 11.4917C71.5167 12.8667 70.425 12.8667 69.05 11.4917L66.125 8.55832Z" fill="#FEFBF5"/>
</svg>
