<svg width="200" height="32" viewBox="0 0 200 32" fill="none" xmlns="http://www.w3.org/2000/svg">
<path d="M165.142 1.66667L165.525 24.1167H165.333L158.833 1.67501H148.142V29.9417H155.208L154.825 6.73333H155.017L161.983 29.9417H172.208V1.67501L165.142 1.66667ZM30.5583 1.66667L25.2167 30.2333H32.95L36.8667 4.25001H37.0583L40.8833 30.2333H48.5167L43.2667 1.67501L30.5583 1.66667ZM73.7333 1.66667L70.2 23.45H70.0083L66.475 1.67501H54.8333L54.2583 30.2333H61.425L61.6167 4.54167H61.7083L66.4833 30.2333H73.7417L78.5167 4.54167H78.7083L78.9 30.2333H86.0667L85.4 1.67501L73.7333 1.66667ZM13.1833 22.1167C13.3929 22.7973 13.4244 23.5203 13.275 24.2167C13.0833 25.1667 12.4167 26.125 10.5083 26.125C8.69167 26.125 7.64167 25.075 7.64167 23.5417V20.775H0V22.975C0 29.375 5.05833 31.2833 10.4167 31.2833C15.5667 31.2833 19.8667 29.4667 20.5333 24.7833C20.9167 22.3 20.6333 20.6833 20.5333 20.1083C19.2 14.0917 8.30833 12.3667 7.54167 9.02501C7.44785 8.521 7.44785 8.00401 7.54167 7.5C7.73333 6.54167 8.40833 5.58334 10.125 5.58334C11.8417 5.58334 12.7917 6.64167 12.7917 8.16668V9.88334H19.9583V7.88334C19.9583 1.67501 14.325 0.716675 10.3167 0.716675C5.25 0.716675 1.05 2.43334 0.283333 7.02501C0.0325385 8.28885 0.0667007 9.5927 0.383333 10.8417C1.525 16.7583 11.75 18.4833 13.1833 22.1083M106.117 22.1083C106.4 22.775 106.3 23.6417 106.208 24.2167C106.017 25.1667 105.35 26.125 103.442 26.125C101.625 26.125 100.575 25.075 100.575 23.5417V20.775H92.9333V22.975C92.9333 29.275 97.9 31.1833 103.25 31.1833C108.408 31.1833 112.608 29.4667 113.275 24.6917C113.658 22.2083 113.375 20.6833 113.275 20.0083C112.133 14.0917 101.333 12.275 100.575 9.02501C100.481 8.521 100.481 8.00401 100.575 7.5C100.767 6.54167 101.433 5.58334 103.158 5.58334C104.775 5.58334 105.825 6.64167 105.825 8.16668V9.88334H112.892V7.88334C112.892 1.67501 107.35 0.716675 103.342 0.716675C98.2833 0.716675 94.175 2.34167 93.4083 7.02501C93.2167 8.26667 93.2167 9.40833 93.5083 10.8417C94.65 16.7583 104.675 18.3833 106.117 22.1083ZM130.183 25.9333C132.183 25.9333 132.767 24.6 132.95 23.8333C133.05 23.5417 133.05 23.0667 133.05 22.7833V1.66667H140.3V22.2C140.3 22.775 140.3 23.825 140.217 24.1167C139.733 29.4583 135.533 31.175 130.275 31.175C125.025 31.175 120.825 29.4583 120.342 24.1083C120.342 23.825 120.25 22.775 120.25 22.2V1.66667H127.5V22.775C127.5 23.1583 127.5 23.5333 127.6 23.825C127.6 24.5833 128.183 25.925 130.183 25.925M189.783 25.6417C191.883 25.6417 192.55 24.3083 192.742 23.5333C192.833 23.25 192.833 22.775 192.833 22.4833V18.375H189.875V14.175H200V21.8167C200 22.3917 200 22.775 199.908 23.7333C199.425 28.9833 194.933 30.7917 189.875 30.7917C184.817 30.7917 180.325 28.9833 179.85 23.725C179.75 22.775 179.75 22.3917 179.75 21.8167V9.78334C179.75 9.30834 179.85 8.35001 179.85 7.86667C180.517 2.52501 184.817 0.808339 189.875 0.808339C194.933 0.808339 199.333 2.525 199.9 7.875C200 8.73333 200 9.78334 200 9.78334V10.7417H192.833V9.11667C192.833 9.11667 192.833 8.45001 192.742 8.06667C192.642 7.40001 192.075 5.96667 189.875 5.96667C187.775 5.96667 187.208 7.30001 187.008 8.06667C186.917 8.44167 186.917 8.92501 186.917 9.40001V22.4833C186.917 22.8667 186.917 23.25 187.008 23.5333C187.008 24.3 187.775 25.6417 189.783 25.6417Z" fill="#FEFBF5"/>
</svg>
