<svg width="120" height="120" viewBox="0 0 120 120" fill="none" xmlns="http://www.w3.org/2000/svg">
<g clip-path="url(#clip0_15_55)">
<path d="M119.432 60.612C122.912 56.628 109.412 43.236 105.557 40.872C102.039 38.712 97.5014 37.644 88.4261 35.508C79.3507 33.372 69.6529 30 60 30C50.3471 30 40.6418 33.372 31.5739 35.508C22.5061 37.644 17.9609 38.718 14.4433 40.872C10.5881 43.236 -2.91241 56.634 0.567722 60.612C7.22798 68.238 113.56 67.338 119.432 60.612Z" stroke="#F5AD3F" stroke-width="8" stroke-linecap="round" stroke-linejoin="round"/>
<path d="M37.5014 66C37.5014 70.7739 39.872 75.3523 44.0918 78.7279C48.3115 82.1036 54.0347 84 60.0023 84C65.9699 84 71.6931 82.1036 75.9128 78.7279C80.1325 75.3523 82.5031 70.7739 82.5031 66M60.0023 108V120M82.5031 102L97.5037 111M37.5014 102L22.5008 111M60.0023 30V0" stroke="#F5AD3F" stroke-width="8" stroke-linecap="round" stroke-linejoin="round"/>
</g>
<defs>
<clipPath id="clip0_15_55">
<rect width="120" height="120" fill="white"/>
</clipPath>
</defs>
</svg>
