<svg width="102" height="91" viewBox="0 0 102 91" fill="none" xmlns="http://www.w3.org/2000/svg">
<path d="M86.9672 15.3047C79.8961 8.18846 70.8714 3.33194 61.037 1.35077C51.2026 -0.630395 41.0014 0.353008 31.7265 4.17632C22.4516 7.99963 14.5208 14.4907 8.93935 22.8266C3.3579 31.1626 0.377161 40.968 0.375 51V77.25C0.375 80.731 1.75781 84.0694 4.21922 86.5308C6.68064 88.9922 10.019 90.375 13.5 90.375H21C24.481 90.375 27.8194 88.9922 30.2808 86.5308C32.7422 84.0694 34.125 80.731 34.125 77.25V58.5C34.125 55.019 32.7422 51.6806 30.2808 49.2192C27.8194 46.7578 24.481 45.375 21 45.375H12.0188C13.3763 36.0041 18.0632 27.4355 25.2217 21.2377C32.3801 15.0399 41.5313 11.6275 51 11.625H51.3C60.7265 11.6654 69.8234 15.0983 76.9264 21.2958C84.0294 27.4933 88.6636 36.0409 89.9813 45.375H81C77.519 45.375 74.1806 46.7578 71.7192 49.2192C69.2578 51.6806 67.875 55.019 67.875 58.5V77.25C67.875 80.731 69.2578 84.0694 71.7192 86.5308C74.1806 88.9922 77.519 90.375 81 90.375H88.5C90.2236 90.375 91.9303 90.0355 93.5227 89.3759C95.1151 88.7163 96.562 87.7496 97.7808 86.5308C98.9995 85.312 99.9663 83.8651 100.626 82.2727C101.286 80.6803 101.625 78.9736 101.625 77.25V51C101.651 44.3784 100.369 37.8167 97.854 31.6914C95.3387 25.566 91.639 19.9973 86.9672 15.3047ZM21 56.625C21.4973 56.625 21.9742 56.8226 22.3258 57.1742C22.6775 57.5258 22.875 58.0027 22.875 58.5V77.25C22.875 77.7473 22.6775 78.2242 22.3258 78.5758C21.9742 78.9275 21.4973 79.125 21 79.125H13.5C13.0027 79.125 12.5258 78.9275 12.1742 78.5758C11.8225 78.2242 11.625 77.7473 11.625 77.25V56.625H21ZM90.375 77.25C90.375 77.7473 90.1775 78.2242 89.8258 78.5758C89.4742 78.9275 88.9973 79.125 88.5 79.125H81C80.5027 79.125 80.0258 78.9275 79.6742 78.5758C79.3225 78.2242 79.125 77.7473 79.125 77.25V58.5C79.125 58.0027 79.3225 57.5258 79.6742 57.1742C80.0258 56.8226 80.5027 56.625 81 56.625H90.375V77.25Z" fill="#f5ad3f"/>
</svg>
