<svg width="120" height="98" viewBox="0 0 120 98" fill="none" xmlns="http://www.w3.org/2000/svg">
<path fill-rule="evenodd" clip-rule="evenodd" d="M22.5 11.25H97.5C100.484 11.25 103.345 12.4353 105.455 14.545C107.565 16.6548 108.75 19.5163 108.75 22.5V60C108.75 62.9837 107.565 65.8452 105.455 67.955C103.345 70.0647 100.484 71.25 97.5 71.25H22.5C19.5163 71.25 16.6548 70.0647 14.545 67.955C12.4353 65.8452 11.25 62.9837 11.25 60V22.5C11.25 19.5163 12.4353 16.6548 14.545 14.545C16.6548 12.4353 19.5163 11.25 22.5 11.25ZM20.925 82.4475C15.2438 82.0488 9.92511 79.5106 6.04175 75.3447C2.1584 71.1788 -0.00068141 65.6952 1.61318e-07 60V22.5C1.61318e-07 16.5326 2.37053 10.8097 6.5901 6.5901C10.8097 2.37053 16.5326 0 22.5 0H97.5C103.467 0 109.19 2.37053 113.41 6.5901C117.629 10.8097 120 16.5326 120 22.5V60C120.001 65.6952 117.842 71.1788 113.958 75.3447C110.075 79.5106 104.756 82.0488 99.075 82.4475L102.525 89.3625C102.899 90.0265 103.134 90.7595 103.217 91.5172C103.299 92.2748 103.226 93.0413 103.003 93.77C102.78 94.4988 102.411 95.1746 101.919 95.7564C101.427 96.3383 100.822 96.8141 100.14 97.1549C99.4583 97.4957 98.7145 97.6945 97.9537 97.7391C97.1929 97.7837 96.431 97.6733 95.7142 97.4145C94.9974 97.1557 94.3406 96.7539 93.7838 96.2336C93.227 95.7132 92.7817 95.0852 92.475 94.3875L86.52 82.5H33.48L27.5325 94.3875C27.2061 95.0543 26.7509 95.6498 26.1932 96.1398C25.6355 96.6298 24.9864 97.0045 24.2832 97.2424C23.5799 97.4804 22.8366 97.5767 22.096 97.526C21.3553 97.4752 20.6321 97.2784 19.9679 96.9468C19.3037 96.6152 18.7117 96.1554 18.2261 95.5939C17.7404 95.0324 17.3707 94.3804 17.1383 93.6753C16.9059 92.9703 16.8153 92.2262 16.8718 91.486C16.9283 90.7458 17.1307 90.0241 17.4675 89.3625L20.925 82.4475Z" fill="#F5AD3F"/>
</svg>
