<svg width="70" height="100" viewBox="0 0 70 100" fill="none" xmlns="http://www.w3.org/2000/svg">
<path d="M58.65 0.325012H11.35C8.21311 0.513441 5.27725 1.93197 3.18018 4.27245C1.0831 6.61294 -0.0058012 9.68633 0.15 12.825V87.175C-0.0058012 90.3137 1.0831 93.3871 3.18018 95.7276C5.27725 98.0681 8.21311 99.4866 11.35 99.675H58.65C61.7869 99.4866 64.7227 98.0681 66.8198 95.7276C68.9169 93.3871 70.0058 90.3137 69.85 87.175V12.825C70.0058 9.68633 68.9169 6.61294 66.8198 4.27245C64.7227 1.93197 61.7869 0.513441 58.65 0.325012ZM64.85 87.175C65.0039 88.9879 64.4408 90.7888 63.2816 92.1911C62.1223 93.5934 60.4595 94.4852 58.65 94.675H11.35C9.54053 94.4852 7.87765 93.5934 6.71843 92.1911C5.5592 90.7888 4.99609 88.9879 5.15 87.175V12.825C4.99609 11.0121 5.5592 9.2112 6.71843 7.80891C7.87765 6.40663 9.54053 5.51483 11.35 5.32501H19V7.87501C19 9.20109 19.5268 10.4729 20.4645 11.4105C21.4021 12.3482 22.6739 12.875 24 12.875H46C47.3261 12.875 48.5978 12.3482 49.5355 11.4105C50.4732 10.4729 51 9.20109 51 7.87501V5.32501H58.65C60.4595 5.51483 62.1223 6.40663 63.2816 7.80891C64.4408 9.2112 65.0039 11.0121 64.85 12.825V87.175Z" fill="#F5AD3F"/>
</svg>
