<svg width="16" height="18" viewBox="0 0 16 18" fill="none" xmlns="http://www.w3.org/2000/svg">
<path d="M2.5 1H2.50003L2.50009 1.00031L2.96009 3.20431L3.12616 4H3.939H15H15L15 4.00005L13.75 10H13.75H5.605H4.3756L4.4274 10.249L2.66495 1.79589L2.49901 1H2.5ZM4.21431 13.1594L4.96588 12.8379L4.9996 13H5.813H6.41673L6.88698 14.3327C7.01676 14.7005 7.03616 15.0983 6.9428 15.4769C6.84944 15.8556 6.64739 16.1988 6.36153 16.4641C6.07566 16.7294 5.71845 16.9054 5.33387 16.9703C4.94928 17.0352 4.55411 16.9863 4.19698 16.8295C3.83985 16.6727 3.53636 16.4149 3.32386 16.0879C3.11136 15.7608 2.99912 15.3788 3.00096 14.9888C3.00281 14.5987 3.11865 14.2178 3.33423 13.8927C3.54981 13.5677 3.85572 13.3128 4.21431 13.1594ZM12.9995 13C13.424 13.0002 13.8374 13.1355 14.1799 13.3863C14.5224 13.6371 14.7763 13.9903 14.9047 14.3949C15.0331 14.7996 15.0295 15.2345 14.8943 15.6369C14.7591 16.0393 14.4994 16.3883 14.1527 16.6333C13.806 16.8783 13.3904 17.0066 12.9659 16.9997C12.5415 16.9928 12.1302 16.8511 11.7917 16.5949C11.4532 16.3388 11.2049 15.9816 11.0829 15.575C10.9608 15.1684 10.9713 14.7336 11.1128 14.3333L11.5842 13H12.9995Z" stroke="#FEFBF5" stroke-width="2"/>
</svg>
