<svg width="22" height="22" viewBox="0 0 22 22" fill="none" xmlns="http://www.w3.org/2000/svg">
<g clip-path="url(#clip0_15_18)">
<path fill-rule="evenodd" clip-rule="evenodd" d="M11.5236 14.1706C11.2754 14.4184 10.939 14.5577 10.5883 14.5577C10.2375 14.5577 9.90113 14.4184 9.65297 14.1706L4.66061 9.18C4.41244 8.93171 4.27306 8.595 4.27315 8.24395C4.27323 7.8929 4.41276 7.55626 4.66105 7.30809C4.90934 7.05992 5.24605 6.92054 5.5971 6.92062C5.94815 6.92071 6.28479 7.06024 6.53297 7.30853L10.5883 11.3638L14.6436 7.30853C14.8931 7.06732 15.2273 6.93375 15.5744 6.93661C15.9214 6.93946 16.2534 7.07849 16.4989 7.32377C16.7444 7.56905 16.8838 7.90094 16.887 8.24797C16.8901 8.59499 16.7569 8.92938 16.5159 9.17912L11.5244 14.1715L11.5236 14.1706Z" fill="#252525"/>
</g>
<defs>
<clipPath id="clip0_15_18">
<rect width="21.1765" height="21.1765" fill="white"/>
</clipPath>
</defs>
</svg>
