<svg width="24" height="24" viewBox="0 0 24 24" fill="none" xmlns="http://www.w3.org/2000/svg">
<path fill-rule="evenodd" clip-rule="evenodd" d="M5.07901 5.06901C8.87401 1.27901 15.044 1.31901 18.862 5.13801C22.682 8.95801 22.722 15.131 18.926 18.926C15.131 22.721 8.95801 22.682 5.13801 18.862C4.06351 17.7919 3.25166 16.4874 2.76618 15.0507C2.28071 13.6141 2.13484 12.0845 2.34001 10.582C2.36693 10.3848 2.47108 10.2064 2.62955 10.086C2.78802 9.9656 2.98782 9.91309 3.18501 9.94C3.3822 9.96692 3.56062 10.0711 3.68101 10.2295C3.80141 10.388 3.85393 10.5878 3.82701 10.785C3.65285 12.0583 3.77632 13.3547 4.18772 14.5722C4.59911 15.7897 5.28723 16.8953 6.19801 17.802C9.44301 21.046 14.666 21.065 17.866 17.866C21.065 14.666 21.046 9.44301 17.802 6.19801C14.559 2.95601 9.33901 2.93501 6.13901 6.13001L6.88701 6.13301C6.9855 6.13347 7.08294 6.15332 7.17376 6.19144C7.26457 6.22955 7.347 6.28518 7.41631 6.35515C7.48563 6.42512 7.54049 6.50806 7.57776 6.59923C7.61503 6.6904 7.63397 6.78801 7.63351 6.88651C7.63305 6.985 7.6132 7.08243 7.57508 7.17325C7.53696 7.26407 7.48133 7.34649 7.41136 7.41581C7.3414 7.48513 7.25846 7.53999 7.16729 7.57725C7.07612 7.61452 6.9785 7.63347 6.88001 7.63301L4.33401 7.62101C4.13631 7.61995 3.94702 7.54088 3.80732 7.40099C3.66762 7.2611 3.5888 7.07171 3.58801 6.87401L3.57501 4.33001C3.57448 4.23151 3.59336 4.13388 3.63057 4.04269C3.66778 3.95149 3.72258 3.86852 3.79185 3.7985C3.86112 3.72849 3.94351 3.6728 4.0343 3.63463C4.12509 3.59645 4.22252 3.57653 4.32101 3.57601C4.4195 3.57548 4.51713 3.59436 4.60833 3.63157C4.69952 3.66877 4.7825 3.72357 4.85251 3.79285C4.92253 3.86212 4.97821 3.9445 5.01639 4.0353C5.05456 4.12609 5.07448 4.22351 5.07501 4.32201L5.07901 5.06901Z" fill="#252525"/>
<path opacity="0.5" d="M12 7.25C12.1989 7.25 12.3897 7.32902 12.5303 7.46967C12.671 7.61032 12.75 7.80109 12.75 8V11.69L15.03 13.97C15.1037 14.0387 15.1628 14.1215 15.2038 14.2135C15.2448 14.3055 15.2668 14.4048 15.2686 14.5055C15.2704 14.6062 15.2518 14.7062 15.2141 14.7996C15.1764 14.893 15.1203 14.9778 15.049 15.049C14.9778 15.1203 14.893 15.1764 14.7996 15.2141C14.7062 15.2518 14.6062 15.2704 14.5055 15.2686C14.4048 15.2668 14.3055 15.2448 14.2135 15.2038C14.1215 15.1628 14.0387 15.1037 13.97 15.03L11.543 12.604C11.45 12.511 11.3763 12.4007 11.326 12.2792C11.2757 12.1577 11.2499 12.0275 11.25 11.896V8C11.25 7.80109 11.329 7.61032 11.4697 7.46967C11.6103 7.32902 11.8011 7.25 12 7.25Z" fill="#252525"/>
</svg>
